<svg width="24" height="41" viewBox="0 0 24 41" fill="none" xmlns="http://www.w3.org/2000/svg">
<path opacity="0.2" d="M14.25 15.25V28H3.75C3.55109 28 3.36032 27.921 3.21967 27.7803C3.07902 27.6397 3 27.4489 3 27.25V16C3 15.8011 3.07902 15.6103 3.21967 15.4697C3.36032 15.329 3.55109 15.25 3.75 15.25H14.25Z" fill="#FF6250"/>
<path d="M20.25 14.5004H13.8103L17.0306 11.281C17.1714 11.1403 17.2504 10.9494 17.2504 10.7504C17.2504 10.5514 17.1714 10.3605 17.0306 10.2198C16.8899 10.0791 16.699 10 16.5 10C16.301 10 16.1101 10.0791 15.9694 10.2198L12 14.1901L8.03063 10.2198C7.96094 10.1501 7.87822 10.0948 7.78717 10.0571C7.69613 10.0194 7.59855 10 7.5 10C7.40145 10 7.30387 10.0194 7.21283 10.0571C7.12178 10.0948 7.03906 10.1501 6.96937 10.2198C6.82864 10.3605 6.74958 10.5514 6.74958 10.7504C6.74958 10.9494 6.82864 11.1403 6.96937 11.281L10.1897 14.5004H3.75C3.35218 14.5004 2.97064 14.6585 2.68934 14.9398C2.40804 15.2211 2.25 15.6026 2.25 16.0004V27.2504C2.25 27.6482 2.40804 28.0298 2.68934 28.3111C2.97064 28.5924 3.35218 28.7504 3.75 28.7504H20.25C20.6478 28.7504 21.0294 28.5924 21.3107 28.3111C21.592 28.0298 21.75 27.6482 21.75 27.2504V16.0004C21.75 15.6026 21.592 15.2211 21.3107 14.9398C21.0294 14.6585 20.6478 14.5004 20.25 14.5004ZM3.75 16.0004H13.5V27.2504H3.75V16.0004ZM20.25 27.2504H15V16.0004H20.25V27.2504ZM18.75 19.3754C18.75 19.5979 18.684 19.8154 18.5604 20.0004C18.4368 20.1854 18.2611 20.3296 18.0555 20.4148C17.85 20.4999 17.6238 20.5222 17.4055 20.4788C17.1873 20.4354 16.9868 20.3282 16.8295 20.1709C16.6722 20.0136 16.565 19.8131 16.5216 19.5949C16.4782 19.3767 16.5005 19.1505 16.5856 18.9449C16.6708 18.7393 16.815 18.5636 17 18.44C17.185 18.3164 17.4025 18.2504 17.625 18.2504C17.9234 18.2504 18.2095 18.3689 18.4205 18.5799C18.6315 18.7909 18.75 19.077 18.75 19.3754ZM18.75 23.8754C18.75 24.0979 18.684 24.3154 18.5604 24.5004C18.4368 24.6854 18.2611 24.8296 18.0555 24.9148C17.85 24.9999 17.6238 25.0222 17.4055 24.9788C17.1873 24.9354 16.9868 24.8282 16.8295 24.6709C16.6722 24.5136 16.565 24.3131 16.5216 24.0949C16.4782 23.8767 16.5005 23.6505 16.5856 23.4449C16.6708 23.2393 16.815 23.0636 17 22.94C17.185 22.8164 17.4025 22.7504 17.625 22.7504C17.9234 22.7504 18.2095 22.8689 18.4205 23.0799C18.6315 23.2909 18.75 23.577 18.75 23.8754Z" fill="#FF6250"/>
</svg>
