<svg width="24" height="41" viewBox="0 0 24 41" fill="none" xmlns="http://www.w3.org/2000/svg">
<path opacity="0.2" d="M14.25 15.25V28H3.75C3.55109 28 3.36032 27.921 3.21967 27.7803C3.07902 27.6397 3 27.4489 3 27.25V16C3 15.8011 3.07902 15.6103 3.21967 15.4697C3.36032 15.329 3.55109 15.25 3.75 15.25H14.25Z" fill="#FF6250"/>
<path d="M20.25 14.5001H13.8103L17.0306 11.2807C17.1714 11.1399 17.2504 10.9491 17.2504 10.7501C17.2504 10.551 17.1714 10.3602 17.0306 10.2194C16.8899 10.0787 16.699 9.99963 16.5 9.99963C16.301 9.99963 16.1101 10.0787 15.9694 10.2194L12 14.1897L8.03063 10.2194C7.96094 10.1497 7.87822 10.0945 7.78717 10.0568C7.69613 10.019 7.59855 9.99963 7.5 9.99963C7.40145 9.99963 7.30387 10.019 7.21283 10.0568C7.12178 10.0945 7.03906 10.1497 6.96937 10.2194C6.82864 10.3602 6.74958 10.551 6.74958 10.7501C6.74958 10.9491 6.82864 11.1399 6.96937 11.2807L10.1897 14.5001H3.75C3.35218 14.5001 2.97064 14.6581 2.68934 14.9394C2.40804 15.2207 2.25 15.6022 2.25 16.0001V27.2501C2.25 27.6479 2.40804 28.0294 2.68934 28.3107C2.97064 28.592 3.35218 28.7501 3.75 28.7501H20.25C20.6478 28.7501 21.0294 28.592 21.3107 28.3107C21.592 28.0294 21.75 27.6479 21.75 27.2501V16.0001C21.75 15.6022 21.592 15.2207 21.3107 14.9394C21.0294 14.6581 20.6478 14.5001 20.25 14.5001ZM3.75 16.0001H13.5V27.2501H3.75V16.0001ZM20.25 27.2501H15V16.0001H20.25V27.2501ZM18.75 19.3751C18.75 19.5976 18.684 19.8151 18.5604 20.0001C18.4368 20.1851 18.2611 20.3293 18.0555 20.4144C17.85 20.4996 17.6238 20.5218 17.4055 20.4784C17.1873 20.435 16.9868 20.3279 16.8295 20.1705C16.6722 20.0132 16.565 19.8128 16.5216 19.5945C16.4782 19.3763 16.5005 19.1501 16.5856 18.9445C16.6708 18.739 16.815 18.5633 17 18.4396C17.185 18.316 17.4025 18.2501 17.625 18.2501C17.9234 18.2501 18.2095 18.3686 18.4205 18.5796C18.6315 18.7905 18.75 19.0767 18.75 19.3751ZM18.75 23.8751C18.75 24.0976 18.684 24.3151 18.5604 24.5001C18.4368 24.6851 18.2611 24.8293 18.0555 24.9144C17.85 24.9996 17.6238 25.0218 17.4055 24.9784C17.1873 24.935 16.9868 24.8279 16.8295 24.6705C16.6722 24.5132 16.565 24.3128 16.5216 24.0945C16.4782 23.8763 16.5005 23.6501 16.5856 23.4445C16.6708 23.239 16.815 23.0633 17 22.9396C17.185 22.816 17.4025 22.7501 17.625 22.7501C17.9234 22.7501 18.2095 22.8686 18.4205 23.0796C18.6315 23.2905 18.75 23.5767 18.75 23.8751Z" fill="#FF6250"/>
</svg>
